<?xml version="1.0" encoding="UTF-8"?>
<svg xmlns="http://www.w3.org/2000/svg" viewBox="0 0 400 540" width="800" height="1080">
  <defs>
    <linearGradient id="silo-light" x1="0%" y1="0%" x2="100%" y2="0%">
      <stop offset="0%" stop-color="#F4EFE0"/>
      <stop offset="50%" stop-color="#E8E1CC"/>
      <stop offset="100%" stop-color="#D4CCAB"/>
    </linearGradient>
    <linearGradient id="silo-bg" x1="0%" y1="0%" x2="0%" y2="100%">
      <stop offset="0%" stop-color="#1B5E3F"/>
      <stop offset="100%" stop-color="#0F3D27"/>
    </linearGradient>
  </defs>

  <!-- Cream background -->
  <rect x="0" y="0" width="400" height="540" fill="#FBF8EE"/>

  <!-- ===== ICON CENTERED ===== -->
  <g transform="translate(80 30)">
    <rect x="20" y="20" width="200" height="200" rx="28" fill="url(#silo-bg)" stroke="#D4B262" stroke-width="1.5" stroke-opacity="0.6"/>
    <circle cx="180" cy="65" r="14" fill="#E8C966" opacity="0.95"/>
    <circle cx="180" cy="65" r="22" stroke="#D4B262" stroke-width="0.6" fill="none" opacity="0.4"/>
    <line x1="35" y1="190" x2="205" y2="190" stroke="#D4B262" stroke-width="1.5"/>
    <rect x="48" y="120" width="32" height="70" fill="url(#silo-light)" stroke="#0F3D27" stroke-width="1"/>
    <rect x="48" y="120" width="6" height="70" fill="#0F3D27" opacity="0.18"/>
    <path d="M48 120 L64 105 L80 120 Z" fill="#D4B262" stroke="#0F3D27" stroke-width="1"/>
    <line x1="48" y1="140" x2="80" y2="140" stroke="#0F3D27" stroke-width="0.5" opacity="0.4"/>
    <line x1="48" y1="160" x2="80" y2="160" stroke="#0F3D27" stroke-width="0.5" opacity="0.4"/>
    <line x1="48" y1="180" x2="80" y2="180" stroke="#0F3D27" stroke-width="0.5" opacity="0.4"/>
    <rect x="86" y="95" width="36" height="95" fill="url(#silo-light)" stroke="#0F3D27" stroke-width="1"/>
    <rect x="86" y="95" width="7" height="95" fill="#0F3D27" opacity="0.18"/>
    <path d="M86 95 L104 78 L122 95 Z" fill="#D4B262" stroke="#0F3D27" stroke-width="1"/>
    <line x1="86" y1="115" x2="122" y2="115" stroke="#0F3D27" stroke-width="0.5" opacity="0.4"/>
    <line x1="86" y1="135" x2="122" y2="135" stroke="#0F3D27" stroke-width="0.5" opacity="0.4"/>
    <line x1="86" y1="155" x2="122" y2="155" stroke="#0F3D27" stroke-width="0.5" opacity="0.4"/>
    <line x1="86" y1="175" x2="122" y2="175" stroke="#0F3D27" stroke-width="0.5" opacity="0.4"/>
    <rect x="100" y="178" width="8" height="12" fill="#0F3D27"/>
    <rect x="128" y="108" width="34" height="82" fill="url(#silo-light)" stroke="#0F3D27" stroke-width="1"/>
    <rect x="128" y="108" width="7" height="82" fill="#0F3D27" opacity="0.18"/>
    <path d="M128 108 L145 92 L162 108 Z" fill="#D4B262" stroke="#0F3D27" stroke-width="1"/>
    <line x1="128" y1="128" x2="162" y2="128" stroke="#0F3D27" stroke-width="0.5" opacity="0.4"/>
    <line x1="128" y1="148" x2="162" y2="148" stroke="#0F3D27" stroke-width="0.5" opacity="0.4"/>
    <line x1="128" y1="168" x2="162" y2="168" stroke="#0F3D27" stroke-width="0.5" opacity="0.4"/>
    <rect x="168" y="125" width="32" height="65" fill="url(#silo-light)" stroke="#0F3D27" stroke-width="1"/>
    <rect x="168" y="125" width="6" height="65" fill="#0F3D27" opacity="0.18"/>
    <path d="M168 125 L184 110 L200 125 Z" fill="#D4B262" stroke="#0F3D27" stroke-width="1"/>
    <line x1="168" y1="145" x2="200" y2="145" stroke="#0F3D27" stroke-width="0.5" opacity="0.4"/>
    <line x1="168" y1="165" x2="200" y2="165" stroke="#0F3D27" stroke-width="0.5" opacity="0.4"/>
    <g transform="translate(38 195)" stroke="#D4B262" stroke-width="0.8" fill="#E8C966">
      <line x1="0" y1="0" x2="0" y2="-12" stroke="#D4B262" stroke-width="0.8"/>
      <ellipse cx="-2" cy="-6" rx="1.5" ry="3.5" transform="rotate(-25 -2 -6)"/>
      <ellipse cx="2" cy="-6" rx="1.5" ry="3.5" transform="rotate(25 2 -6)"/>
      <ellipse cx="-2" cy="-12" rx="1.5" ry="3" transform="rotate(-25 -2 -12)"/>
      <ellipse cx="2" cy="-12" rx="1.5" ry="3" transform="rotate(25 2 -12)"/>
    </g>
    <g transform="translate(215 195)" stroke="#D4B262" stroke-width="0.8" fill="#E8C966">
      <line x1="0" y1="0" x2="0" y2="-12" stroke="#D4B262" stroke-width="0.8"/>
      <ellipse cx="-2" cy="-6" rx="1.5" ry="3.5" transform="rotate(-25 -2 -6)"/>
      <ellipse cx="2" cy="-6" rx="1.5" ry="3.5" transform="rotate(25 2 -6)"/>
      <ellipse cx="-2" cy="-12" rx="1.5" ry="3" transform="rotate(-25 -2 -12)"/>
      <ellipse cx="2" cy="-12" rx="1.5" ry="3" transform="rotate(25 2 -12)"/>
    </g>
  </g>

  <!-- ===== WORDMARK "AgroProfit+" ===== -->
  <text x="200" y="350" font-family="'Arial Black', 'Helvetica Neue', sans-serif" font-size="56" font-weight="900" text-anchor="middle" letter-spacing="-2">
    <tspan fill="#1B5E3F">Agro</tspan><tspan fill="#11211A">Profit</tspan><tspan fill="#B08828" font-style="italic" font-size="48" dy="-4">+</tspan>
  </text>

  <!-- divider line -->
  <line x1="100" y1="380" x2="300" y2="380" stroke="#C9C0A6" stroke-width="1"/>

  <!-- ===== TAGLINE ===== -->
  <text x="200" y="408" font-family="'Courier New', 'Menlo', monospace" font-size="14" font-weight="500" text-anchor="middle" letter-spacing="3" fill="#2F4438">
    PARTENERUL TĂU · ÎN AGRICULTURĂ
  </text>
</svg>
